<svg width="155" height="54" viewBox="0 0 155 54" fill="none" xmlns="http://www.w3.org/2000/svg">
<path d="M60.8419 40.6506V14.1307H67.9495C72.1407 14.1307 74.8144 16.8182 74.8144 21.9091V23.3239C74.8144 28.4858 72.1407 31.2813 67.9495 31.2813H65.8539V40.6506H60.8419ZM65.8539 19.0795V26.3295H67.7069C69.1651 26.3295 70.014 25.375 70.014 22.9716V22.2642C70.014 19.9318 69.1622 19.0824 67.7069 19.0824H65.8539V19.0795Z" fill="#1D1D1B"/>
<path d="M88.818 40.6506H77.4572V14.1307H88.818V19.2585H82.5622V24.5625H88.2116V29.6903H82.5622V35.5256H88.818V40.6534V40.6506Z" fill="#1D1D1B"/>
<path d="M91.7626 40.6506V14.1307H99.3552C103.242 14.1307 106.068 16.5341 106.068 21.0256V22.0511C106.068 25.3409 104.55 27.4602 102.241 28.3807L106.643 40.6506H100.963L96.8619 27.6023V40.6506H91.7597H91.7626ZM96.8648 19.0795V25.8693H98.6558C100.083 25.8693 100.966 24.9148 100.966 22.5455V22.0511C100.966 19.858 100.086 19.0795 98.6558 19.0795H96.8648Z" fill="#1D1D1B"/>
<path d="M120.345 40.6506H108.984V14.1307H114.149V35.5227H120.345V40.6506Z" fill="#1D1D1B"/>
<path d="M122.683 40.6506V14.1307H127.847V40.6506H122.683Z" fill="#1D1D1B"/>
<path d="M142.091 36.4432V14.1307H146.282V40.6506H138.811L135.59 17.9858V40.6506H131.398V14.1307H138.87L142.091 36.4432Z" fill="#1D1D1B"/>
<path d="M149.839 40.6506V14.1307H155.003V40.6506H149.839Z" fill="#1D1D1B"/>
<path d="M0 14.1932V40.5142L5.27707 43.5V32.1222L18.175 39.4403L18.9309 39.8807V24.9119L0 14.1932ZM13.4987 27.9403V30.6875L5.27707 26.0256V23.2784L13.4987 27.9403Z" fill="#1D1D1B"/>
<path d="M25.5392 1.94034L23.108 0.551136L23.0093 0.5H22.7977L3.18994 11.625L8.5629 14.679L14.813 11.1392L29.1945 19.2869L42.6763 11.6477L25.5392 1.94034ZM31.8824 11.6335L29.1692 13.1733L20.1973 8.08807L22.9106 6.5483L31.8824 11.6335Z" fill="#1D1D1B"/>
<path d="M22.527 27.4034V47.1733L9.00572 39.5085V45.608L22.9275 53.5L27.8041 50.7301V30.5142L31.5158 28.4119V48.6278L36.7928 45.6307V25.4233L40.5215 23.304V43.5171L45.8042 40.5227V14.2102L22.527 27.4034Z" fill="#1D1D1B"/>
</svg>
